Coordinates
version=1
nRows=7
nColumns=40
inDegrees=yes

Units are S.I. units (second, meters, Newtons, ...)
Angles are in degrees.

endheader
time	pelvis_tilt	pelvis_list	pelvis_rotation	pelvis_tx	pelvis_ty	pelvis_tz	hip_flexion_r	hip_adduction_r	hip_rotation_r	knee_angle_r	knee_angle_r_beta	ankle_angle_r	subtalar_angle_r	mtp_angle_r	hip_flexion_l	hip_adduction_l	hip_rotation_l	knee_angle_l	knee_angle_l_beta	ankle_angle_l	subtalar_angle_l	mtp_angle_l	lumbar_extension	lumbar_bending	lumbar_rotation	arm_flex_r	arm_add_r	arm_rot_r	elbow_flex_r	pro_sup_r	wrist_flex_r	wrist_dev_r	arm_flex_l	arm_add_l	arm_rot_l	elbow_flex_l	pro_sup_l	wrist_flex_l	wrist_dev_l
     53.88000000	     -4.95930395	     -4.54136928	     -1.53908117	      1.06011415	      0.90995533	      0.38454993	     17.13429397	     -7.25365046	     -2.73552440	     56.61912350	     56.61912350	      3.51803323	     -8.58897465	    -13.27156355	     22.36000048	     -0.93458918	      0.17030253	     35.53239744	     35.53239744	     21.32094564	    -18.37890943	     11.63118512	     -9.62577342	      6.39030000	      4.84971333	     24.75245644	    -10.98661560	    -11.87031704	     27.84025986	     45.74877205	      0.00000000	      0.00000000	     14.16463089	    -11.63463228	     21.29504592	     32.91321540	     44.69001477	      0.00000000	      0.00000000
     53.90171429	     -4.70849490	     -4.61202421	     -1.77263517	      1.05931629	      0.90935758	      0.38244990	     19.16382235	     -7.16423849	     -2.03123954	     59.61567219	     59.61567219	      3.63141867	     -9.35092433	    -10.18275380	     21.94162263	     -0.92992465	     -0.07845625	     35.81473035	     35.81473035	     21.72018555	    -18.33825810	     11.26660638	     -9.87010070	      6.65887169	      4.22285769	     21.32235335	    -11.01690743	    -11.51956505	     26.72685851	     45.81687975	      0.00000000	      0.00000000	     15.96938104	    -12.05619511	     20.55577899	     34.33715531	     44.85611750	      0.00000000	      0.00000000
     53.92342857	     -4.49710902	     -4.60780607	     -2.03020275	      1.05848381	      0.90889761	      0.38033136	     21.10721297	     -7.12488154	     -1.36757514	     62.02436053	     62.02436053	      2.99180842	    -10.56195638	     -9.52298021	     21.47637694	     -0.83211453	     -0.33766649	     35.94703852	     35.94703852	     22.10512774	    -18.31590178	     11.08014068	    -10.07420119	      6.86988342	      3.57832760	     17.90787332	    -11.03702684	    -11.43782976	     25.29439493	     45.85210170	      0.00000000	      0.00000000	     17.99051391	    -12.56703835	     20.09516353	     35.28552176	     44.94763786	      0.00000000	      0.00000000
     53.94514286	     -4.14994573	     -4.69297492	     -2.20812272	      1.05779600	      0.90902487	      0.37830646	     22.64210610	     -7.09422981	     -1.06183221	     63.70872003	     63.70872003	      2.56326982	    -11.35640270	     -9.02220727	     20.78053739	     -0.81176920	     -0.52468175	     35.94604086	     35.94604086	     22.46164404	    -18.27522700	     10.93433790	    -10.43691681	      7.16268893	      2.51391726	     14.59163716	    -10.93209788	    -11.41407287	     24.00795034	     45.88046232	      0.00000000	      0.00000000	     19.98947773	    -13.40883457	     19.63065257	     36.04114742	     45.03283103	      0.00000000	      0.00000000
     53.96685714	     -4.06851277	     -4.75073221	     -2.64217026	      1.05690975	      0.90918570	      0.37684621	     24.47194636	     -6.79471114	     -0.41280095	     64.91011348	     64.91011348	      2.61780370	    -12.45638878	     -7.15287521	     20.26670081	     -0.88641447	     -0.99765142	     35.75534182	     35.75534182	     22.70255110	    -18.19474971	     10.67754779	    -10.59554792	      7.40400975	      2.98041311	     10.64314714	    -11.48460679	    -11.23602981	     22.56910265	     45.90970055	      0.00000000	      0.00000000	     22.26239057	    -13.47904955	     18.70950802	     37.74172188	     45.18863833	      0.00000000	      0.00000000
     53.98857143	     -3.92007170	     -4.76693044	     -2.99518657	      1.05609206	      0.90994949	      0.37552399	     26.08791047	     -6.69488120	     -0.08035193	     65.56406628	     65.56406628	      4.29752337	    -12.03388483	     -1.77767449	     19.51486749	     -0.90820387	     -1.44289817	     35.21914541	     35.21914541	     22.51118879	    -18.09107413	      9.65077478	    -10.85458946	      7.64503198	      2.50481148	      6.50145870	    -11.69297596	    -10.32174961	     23.60614129	     45.82190321	      0.00000000	      0.00000000	     23.96494187	    -13.80710518	     15.70884594	     39.31367515	     45.59492767	      0.00000000	      0.00000000
     54.01028571	     -3.83308418	     -4.79081673	     -3.41107197	      1.05531149	      0.91122204	      0.37464709	     27.33940688	     -6.56249618	      0.10677487	     64.95709607	     64.95709607	      4.41199003	    -12.59868330	     -1.62302095	     18.72646332	     -0.94783917	     -1.88081619	     34.51403304	     34.51403304	     22.55082796	    -17.96087935	      9.65150880	    -10.98639553	      7.83804921	      2.18223945	      3.26500531	    -11.77463002	    -10.11232617	     22.41644444	     45.84362136	      0.00000000	      0.00000000	     25.92047980	    -14.45869557	     14.95319303	     40.33813294	     45.71046207	      0.00000000	      0.00000000
